<?xml version="1.0" encoding="UTF-8" standalone="no"?>
<svg
   xmlns:dc="http://purl.org/dc/elements/1.1/"
   xmlns:cc="http://creativecommons.org/ns#"
   xmlns:rdf="http://www.w3.org/1999/02/22-rdf-syntax-ns#"
   xmlns:svg="http://www.w3.org/2000/svg"
   xmlns="http://www.w3.org/2000/svg"
   xmlns:xlink="http://www.w3.org/1999/xlink"
   xmlns:sodipodi="http://sodipodi.sourceforge.net/DTD/sodipodi-0.dtd"
   xmlns:inkscape="http://www.inkscape.org/namespaces/inkscape"
   width="218.07542"
   height="20.044449"
   version="1.1"
   id="svg28"
   sodipodi:docname="galaxy.svg"
   inkscape:version="0.92.4 5da689c313, 2019-01-14">
  <metadata
     id="metadata34">
    <rdf:RDF>
      <cc:Work
         rdf:about="">
        <dc:format>image/svg+xml</dc:format>
        <dc:type
           rdf:resource="http://purl.org/dc/dcmitype/StillImage" />
        <dc:title></dc:title>
        <cc:license
           rdf:resource="MIT (c) L3D &lt;l3d@c3woc.de&gt;" />
        <dc:creator>
          <cc:Agent>
            <dc:title>3D &lt;l3d@c3woc.de&gt;</dc:title>
          </cc:Agent>
        </dc:creator>
        <dc:rights>
          <cc:Agent>
            <dc:title>MIT License</dc:title>
          </cc:Agent>
        </dc:rights>
      </cc:Work>
    </rdf:RDF>
  </metadata>
  <defs
     id="defs32">
    <linearGradient
       inkscape:collect="always"
       xlink:href="#b"
       id="linearGradient4625"
       gradientUnits="userSpaceOnUse"
       gradientTransform="matrix(4.9067096,0,0,0.44280744,1.0963297e-6,-1e-6)"
       x1="0"
       y1="-0.28392482"
       x2="0"
       y2="45.166359" />
    <linearGradient
       inkscape:collect="always"
       xlink:href="#b"
       id="linearGradient965"
       gradientUnits="userSpaceOnUse"
       gradientTransform="matrix(4.9067096,0,0,0.44280744,1.0963297e-6,-1e-6)"
       x1="0"
       y1="-0.28392482"
       x2="0"
       y2="45.166359" />
  </defs>
  <sodipodi:namedview
     pagecolor="#ffffff"
     bordercolor="#666666"
     borderopacity="1"
     objecttolerance="10"
     gridtolerance="10"
     guidetolerance="10"
     inkscape:pageopacity="0"
     inkscape:pageshadow="2"
     inkscape:window-width="1916"
     inkscape:window-height="1152"
     id="namedview30"
     showgrid="false"
     showguides="true"
     inkscape:guide-bbox="true"
     inkscape:zoom="1.9179688"
     inkscape:cx="209.9598"
     inkscape:cy="107.45245"
     inkscape:window-x="2560"
     inkscape:window-y="22"
     inkscape:window-maximized="0"
     inkscape:current-layer="svg28"
     fit-margin-top="0"
     fit-margin-left="0"
     fit-margin-right="0"
     fit-margin-bottom="0">
    <sodipodi:guide
       position="47.649406,5.7442467"
       orientation="0,1"
       id="guide4567"
       inkscape:locked="false" />
  </sodipodi:namedview>
  <linearGradient
     id="b"
     x2="0"
     y2="45.166359"
     gradientTransform="scale(2.258318,0.44280744)"
     x1="0"
     y1="-0.28392482"
     gradientUnits="userSpaceOnUse">
    <stop
       offset="0"
       stop-color="#bbb"
       stop-opacity=".1"
       id="stop2" />
    <stop
       offset="1"
       stop-opacity=".1"
       id="stop4" />
  </linearGradient>
  <clipPath
     id="a">
    <rect
       width="102"
       height="20"
       rx="3"
       id="rect7"
       x="0"
       y="0"
       style="fill:#ffffff" />
  </clipPath>
  <path
     sodipodi:nodetypes="sccssss"
     inkscape:connector-curvature="0"
     id="path4637"
     d="M 214.55806,0 H 80 v 20 h 134.55806 c 1.87153,0 3.37821,-1.506683 3.37821,-3.378212 V 3.378212 C 217.93627,1.506682 216.42959,0 214.55806,0 Z"
     style="opacity:1;vector-effect:none;fill:#ff6600;fill-opacity:1;stroke:none;stroke-width:1.4740175;stroke-linecap:butt;stroke-linejoin:miter;stroke-miterlimit:4;stroke-dasharray:none;stroke-dashoffset:0;stroke-opacity:1;paint-order:stroke fill markers" />
  <path
     style="opacity:1;vector-effect:none;fill:#4d4d4d;fill-opacity:1;stroke:none;stroke-width:1.4740175;stroke-linecap:butt;stroke-linejoin:miter;stroke-miterlimit:4;stroke-dasharray:none;stroke-dashoffset:0;stroke-opacity:1;paint-order:stroke fill markers"
     d="M 3.3782117,0 H 87.936272 V 20 H 3.3782117 C 1.5066824,20 0,18.493317 0,16.621788 V 3.3782117 C 0,1.5066824 1.5066824,0 3.3782117,0 Z"
     id="rect4634"
     inkscape:connector-curvature="0"
     sodipodi:nodetypes="sccssss" />
  <g
     id="g894"
     style="font-style:normal;font-weight:normal;font-size:40px;line-height:1.25;font-family:sans-serif;letter-spacing:0px;word-spacing:0px;opacity:1;vector-effect:none;fill:#010101;fill-opacity:0.3;stroke:none;stroke-width:0.1;stroke-linecap:butt;stroke-linejoin:miter;stroke-miterlimit:4;stroke-dasharray:none;stroke-dashoffset:0;stroke-opacity:1"
     aria-label="ansible-galaxy"
     transform="translate(0,0.81938265)">
    <path
       id="path866"
       style="font-style:normal;font-variant:normal;font-weight:normal;font-stretch:normal;font-size:11px;font-family:'DejaVu Sans', Verdana, Geneva, sans-serif;-inkscape-font-specification:'DejaVu Sans, Verdana, Geneva, sans-serif, Normal';font-variant-ligatures:normal;font-variant-caps:normal;font-variant-numeric:normal;font-feature-settings:normal;text-align:start;writing-mode:lr-tb;text-anchor:start;vector-effect:none;fill:#010101;fill-opacity:0.3;stroke-width:0.1;stroke-linecap:butt;stroke-linejoin:miter;stroke-miterlimit:4;stroke-dasharray:none;stroke-dashoffset:0;stroke-opacity:1"
       d="m 10.161693,11.088193 q -1.1977543,0 -1.6596683,0.273926 -0.4619141,0.273926 -0.4619141,0.93457 0,0.526367 0.34375,0.837891 0.3491211,0.306152 0.9453125,0.306152 0.8217769,0 1.3159179,-0.580078 0.499512,-0.585449 0.499512,-1.552246 v -0.220215 z m 1.971191,-0.408203 v 3.432129 h -0.988281 v -0.913086 q -0.338379,0.547851 -0.843262,0.811035 -0.5048828,0.257812 -1.2353515,0.257812 -0.9238281,0 -1.4716797,-0.515625 -0.5424805,-0.520996 -0.5424805,-1.391113 0,-1.015137 0.6767579,-1.530762 0.6821289,-0.515625 2.0302734,-0.515625 h 1.3857424 v -0.09668 q 0,-0.6821292 -0.451172,-1.0527346 Q 10.24763,8.7893648 9.436595,8.7893648 8.92097,8.7893648 8.4322004,8.9129 7.9434309,9.0364351 7.492259,9.2835054 V 8.3704195 Q 8.0347395,8.1609468 8.5449934,8.0588961 9.0552473,7.9514742 9.5386457,7.9514742 q 1.3051763,0 1.9497073,0.6767578 0.644531,0.6767578 0.644531,2.051758 z"
       inkscape:connector-curvature="0" />
    <path
       id="path868"
       style="font-style:normal;font-variant:normal;font-weight:normal;font-stretch:normal;font-size:11px;font-family:'DejaVu Sans', Verdana, Geneva, sans-serif;-inkscape-font-specification:'DejaVu Sans, Verdana, Geneva, sans-serif, Normal';font-variant-ligatures:normal;font-variant-caps:normal;font-variant-numeric:normal;font-feature-settings:normal;text-align:start;writing-mode:lr-tb;text-anchor:start;vector-effect:none;fill:#010101;fill-opacity:0.3;stroke-width:0.1;stroke-linecap:butt;stroke-linejoin:miter;stroke-miterlimit:4;stroke-dasharray:none;stroke-dashoffset:0;stroke-opacity:1"
       d="m 19.169017,10.481259 v 3.63086 h -0.988281 v -3.598633 q 0,-0.854004 -0.333008,-1.2783204 -0.333008,-0.4243164 -0.999024,-0.4243164 -0.800293,0 -1.262207,0.5102539 -0.461914,0.5102539 -0.461914,1.3911129 v 3.399903 H 14.130931 V 8.0964937 h 0.993652 V 9.031064 q 0.354492,-0.5424804 0.83252,-0.8110351 0.483398,-0.2685547 1.111816,-0.2685547 1.036621,0 1.56836,0.6445312 0.531738,0.6391602 0.531738,1.8852536 z"
       inkscape:connector-curvature="0" />
    <path
       id="path870"
       style="font-style:normal;font-variant:normal;font-weight:normal;font-stretch:normal;font-size:11px;font-family:'DejaVu Sans', Verdana, Geneva, sans-serif;-inkscape-font-specification:'DejaVu Sans, Verdana, Geneva, sans-serif, Normal';font-variant-ligatures:normal;font-variant-caps:normal;font-variant-numeric:normal;font-feature-settings:normal;text-align:start;writing-mode:lr-tb;text-anchor:start;vector-effect:none;fill:#010101;fill-opacity:0.3;stroke-width:0.1;stroke-linecap:butt;stroke-linejoin:miter;stroke-miterlimit:4;stroke-dasharray:none;stroke-dashoffset:0;stroke-opacity:1"
       d="M 24.975169,8.2737398 V 9.2083101 Q 24.556224,8.9934664 24.105052,8.8860445 23.65388,8.7786226 23.170482,8.7786226 q -0.73584,0 -1.106446,0.225586 -0.365234,0.2255859 -0.365234,0.6767578 0,0.3437496 0.263184,0.5424806 0.263183,0.193359 1.058105,0.370605 l 0.338379,0.0752 q 1.052734,0.225586 1.493164,0.63916 0.445801,0.408203 0.445801,1.144043 0,0.83789 -0.666016,1.32666 -0.660644,0.488769 -1.820801,0.488769 -0.483398,0 -1.009765,-0.09668 -0.520996,-0.09131 -1.101074,-0.279297 v -1.020508 q 0.547851,0.284668 1.079589,0.429688 0.531739,0.139648 1.052735,0.139648 0.698242,0 1.074219,-0.236328 0.375976,-0.241699 0.375976,-0.676758 0,-0.402832 -0.273926,-0.617676 -0.268554,-0.214843 -1.187011,-0.413574 l -0.34375,-0.08057 q -0.918457,-0.19336 -1.326661,-0.590821 -0.408203,-0.402832 -0.408203,-1.1010739 0,-0.8486328 0.601563,-1.3105468 0.601562,-0.4619141 1.708008,-0.4619141 0.547851,0 1.03125,0.080566 0.483398,0.080566 0.891601,0.2416992 z"
       inkscape:connector-curvature="0" />
    <path
       id="path872"
       style="font-style:normal;font-variant:normal;font-weight:normal;font-stretch:normal;font-size:11px;font-family:'DejaVu Sans', Verdana, Geneva, sans-serif;-inkscape-font-specification:'DejaVu Sans, Verdana, Geneva, sans-serif, Normal';font-variant-ligatures:normal;font-variant-caps:normal;font-variant-numeric:normal;font-feature-settings:normal;text-align:start;writing-mode:lr-tb;text-anchor:start;vector-effect:none;fill:#010101;fill-opacity:0.3;stroke-width:0.1;stroke-linecap:butt;stroke-linejoin:miter;stroke-miterlimit:4;stroke-dasharray:none;stroke-dashoffset:0;stroke-opacity:1"
       d="m 26.871165,8.0964937 h 0.988282 v 6.0156253 h -0.988282 z m 0,-2.3417969 h 0.988282 v 1.2514649 h -0.988282 z"
       inkscape:connector-curvature="0" />
    <path
       id="path874"
       style="font-style:normal;font-variant:normal;font-weight:normal;font-stretch:normal;font-size:11px;font-family:'DejaVu Sans', Verdana, Geneva, sans-serif;-inkscape-font-specification:'DejaVu Sans, Verdana, Geneva, sans-serif, Normal';font-variant-ligatures:normal;font-variant-caps:normal;font-variant-numeric:normal;font-feature-settings:normal;text-align:start;writing-mode:lr-tb;text-anchor:start;vector-effect:none;fill:#010101;fill-opacity:0.3;stroke-width:0.1;stroke-linecap:butt;stroke-linejoin:miter;stroke-miterlimit:4;stroke-dasharray:none;stroke-dashoffset:0;stroke-opacity:1"
       d="m 34.245677,11.109677 q 0,-1.090332 -0.451172,-1.7080075 -0.445801,-0.6230469 -1.22998,-0.6230469 -0.78418,0 -1.235352,0.6230469 -0.445801,0.6176755 -0.445801,1.7080075 0,1.090332 0.445801,1.713379 0.451172,0.617676 1.235352,0.617676 0.784179,0 1.22998,-0.617676 0.451172,-0.623047 0.451172,-1.713379 z M 30.883372,9.0095797 q 0.311524,-0.5371094 0.78418,-0.7949219 0.478027,-0.2631836 1.138672,-0.2631836 1.095703,0 1.777832,0.8701172 0.6875,0.8701172 0.6875,2.2880856 0,1.417969 -0.6875,2.288086 -0.682129,0.870117 -1.777832,0.870117 -0.660645,0 -1.138672,-0.257812 -0.472656,-0.263184 -0.78418,-0.800293 v 0.902344 H 29.88972 V 5.7546968 h 0.993652 z"
       inkscape:connector-curvature="0" />
    <path
       id="path876"
       style="font-style:normal;font-variant:normal;font-weight:normal;font-stretch:normal;font-size:11px;font-family:'DejaVu Sans', Verdana, Geneva, sans-serif;-inkscape-font-specification:'DejaVu Sans, Verdana, Geneva, sans-serif, Normal';font-variant-ligatures:normal;font-variant-caps:normal;font-variant-numeric:normal;font-feature-settings:normal;text-align:start;writing-mode:lr-tb;text-anchor:start;vector-effect:none;fill:#010101;fill-opacity:0.3;stroke-width:0.1;stroke-linecap:butt;stroke-linejoin:miter;stroke-miterlimit:4;stroke-dasharray:none;stroke-dashoffset:0;stroke-opacity:1"
       d="m 36.909739,5.7546968 h 0.988282 v 8.3574222 h -0.988282 z"
       inkscape:connector-curvature="0" />
    <path
       id="path878"
       style="font-style:normal;font-variant:normal;font-weight:normal;font-stretch:normal;font-size:11px;font-family:'DejaVu Sans', Verdana, Geneva, sans-serif;-inkscape-font-specification:'DejaVu Sans, Verdana, Geneva, sans-serif, Normal';font-variant-ligatures:normal;font-variant-caps:normal;font-variant-numeric:normal;font-feature-settings:normal;text-align:start;writing-mode:lr-tb;text-anchor:start;vector-effect:none;fill:#010101;fill-opacity:0.3;stroke-width:0.1;stroke-linecap:butt;stroke-linejoin:miter;stroke-miterlimit:4;stroke-dasharray:none;stroke-dashoffset:0;stroke-opacity:1"
       d="m 45.1114,10.857236 v 0.483398 h -4.543946 q 0.06445,1.020508 0.612305,1.557618 0.553223,0.531738 1.536133,0.531738 0.569336,0 1.101074,-0.139649 0.537109,-0.139648 1.063477,-0.418945 v 0.93457 q -0.531739,0.225586 -1.090332,0.34375 -0.558594,0.118164 -1.133301,0.118164 -1.439453,0 -2.282715,-0.83789 -0.837891,-0.837891 -0.837891,-2.266602 0,-1.4770505 0.794922,-2.3417966 0.800293,-0.8701172 2.153809,-0.8701172 1.213867,0 1.91748,0.7841797 Q 45.1114,9.5144625 45.1114,10.857236 Z M 44.123118,10.567197 Q 44.112376,9.7561617 43.666575,9.2727633 43.226146,8.7893648 42.495677,8.7893648 q -0.827148,0 -1.32666,0.4672852 -0.494141,0.4672851 -0.569336,1.315918 z"
       inkscape:connector-curvature="0" />
    <path
       id="path880"
       style="font-style:normal;font-variant:normal;font-weight:normal;font-stretch:normal;font-size:11px;font-family:'DejaVu Sans', Verdana, Geneva, sans-serif;-inkscape-font-specification:'DejaVu Sans, Verdana, Geneva, sans-serif, Normal';font-variant-ligatures:normal;font-variant-caps:normal;font-variant-numeric:normal;font-feature-settings:normal;text-align:start;writing-mode:lr-tb;text-anchor:start;vector-effect:none;fill:#010101;fill-opacity:0.3;stroke-width:0.1;stroke-linecap:butt;stroke-linejoin:miter;stroke-miterlimit:4;stroke-dasharray:none;stroke-dashoffset:0;stroke-opacity:1"
       d="m 46.233958,10.658505 h 2.89502 v 0.88086 h -2.89502 z"
       inkscape:connector-curvature="0" />
    <path
       id="path882"
       style="font-style:normal;font-variant:normal;font-weight:normal;font-stretch:normal;font-size:11px;font-family:'DejaVu Sans', Verdana, Geneva, sans-serif;-inkscape-font-specification:'DejaVu Sans, Verdana, Geneva, sans-serif, Normal';font-variant-ligatures:normal;font-variant-caps:normal;font-variant-numeric:normal;font-feature-settings:normal;text-align:start;writing-mode:lr-tb;text-anchor:start;vector-effect:none;fill:#010101;fill-opacity:0.3;stroke-width:0.1;stroke-linecap:butt;stroke-linejoin:miter;stroke-miterlimit:4;stroke-dasharray:none;stroke-dashoffset:0;stroke-opacity:1"
       d="m 54.661204,11.034482 q 0,-1.0742187 -0.4458,-1.6650391 -0.44043,-0.5908203 -1.240723,-0.5908203 -0.794922,0 -1.240723,0.5908203 -0.440429,0.5908204 -0.440429,1.6650391 0,1.068848 0.440429,1.659668 0.445801,0.59082 1.240723,0.59082 0.800293,0 1.240723,-0.59082 0.4458,-0.59082 0.4458,-1.659668 z m 0.988282,2.331055 q 0,1.536133 -0.682129,2.282715 -0.682129,0.751953 -2.089356,0.751953 -0.520996,0 -0.98291,-0.08057 -0.461914,-0.0752 -0.896973,-0.236328 v -0.961426 q 0.435059,0.236328 0.859375,0.349121 0.424317,0.112793 0.864746,0.112793 0.972168,0 1.455567,-0.510253 0.483398,-0.504883 0.483398,-1.530762 v -0.48877 q -0.306152,0.531739 -0.784179,0.794922 -0.478028,0.263184 -1.144043,0.263184 -1.106446,0 -1.783203,-0.843262 -0.676758,-0.843262 -0.676758,-2.234375 0,-1.3964844 0.676758,-2.2397461 0.676757,-0.8432617 1.783203,-0.8432617 0.666015,0 1.144043,0.2631836 0.478027,0.2631836 0.784179,0.7949219 v -0.913086 h 0.988282 z"
       inkscape:connector-curvature="0" />
    <path
       id="path884"
       style="font-style:normal;font-variant:normal;font-weight:normal;font-stretch:normal;font-size:11px;font-family:'DejaVu Sans', Verdana, Geneva, sans-serif;-inkscape-font-specification:'DejaVu Sans, Verdana, Geneva, sans-serif, Normal';font-variant-ligatures:normal;font-variant-caps:normal;font-variant-numeric:normal;font-feature-settings:normal;text-align:start;writing-mode:lr-tb;text-anchor:start;vector-effect:none;fill:#010101;fill-opacity:0.3;stroke-width:0.1;stroke-linecap:butt;stroke-linejoin:miter;stroke-miterlimit:4;stroke-dasharray:none;stroke-dashoffset:0;stroke-opacity:1"
       d="m 60.419017,11.088193 q -1.197754,0 -1.659668,0.273926 -0.461914,0.273926 -0.461914,0.93457 0,0.526367 0.34375,0.837891 0.349121,0.306152 0.945312,0.306152 0.821778,0 1.315918,-0.580078 0.499512,-0.585449 0.499512,-1.552246 v -0.220215 z m 1.971191,-0.408203 v 3.432129 h -0.988281 v -0.913086 q -0.338379,0.547851 -0.843262,0.811035 -0.504883,0.257812 -1.235351,0.257812 -0.923828,0 -1.47168,-0.515625 -0.54248,-0.520996 -0.54248,-1.391113 0,-1.015137 0.676757,-1.530762 0.682129,-0.515625 2.030274,-0.515625 h 1.385742 v -0.09668 q 0,-0.6821292 -0.451172,-1.0527346 -0.445801,-0.3759766 -1.256836,-0.3759766 -0.515625,0 -1.004394,0.1235352 -0.48877,0.1235351 -0.939942,0.3706054 V 8.3704195 q 0.542481,-0.2094727 1.052735,-0.3115234 0.510254,-0.1074219 0.993652,-0.1074219 1.305176,0 1.949707,0.6767578 0.644531,0.6767578 0.644531,2.051758 z"
       inkscape:connector-curvature="0" />
    <path
       id="path886"
       style="font-style:normal;font-variant:normal;font-weight:normal;font-stretch:normal;font-size:11px;font-family:'DejaVu Sans', Verdana, Geneva, sans-serif;-inkscape-font-specification:'DejaVu Sans, Verdana, Geneva, sans-serif, Normal';font-variant-ligatures:normal;font-variant-caps:normal;font-variant-numeric:normal;font-feature-settings:normal;text-align:start;writing-mode:lr-tb;text-anchor:start;vector-effect:none;fill:#010101;fill-opacity:0.3;stroke-width:0.1;stroke-linecap:butt;stroke-linejoin:miter;stroke-miterlimit:4;stroke-dasharray:none;stroke-dashoffset:0;stroke-opacity:1"
       d="m 64.425853,5.7546968 h 0.988281 v 8.3574222 h -0.988281 z"
       inkscape:connector-curvature="0" />
    <path
       id="path888"
       style="font-style:normal;font-variant:normal;font-weight:normal;font-stretch:normal;font-size:11px;font-family:'DejaVu Sans', Verdana, Geneva, sans-serif;-inkscape-font-specification:'DejaVu Sans, Verdana, Geneva, sans-serif, Normal';font-variant-ligatures:normal;font-variant-caps:normal;font-variant-numeric:normal;font-feature-settings:normal;text-align:start;writing-mode:lr-tb;text-anchor:start;vector-effect:none;fill:#010101;fill-opacity:0.3;stroke-width:0.1;stroke-linecap:butt;stroke-linejoin:miter;stroke-miterlimit:4;stroke-dasharray:none;stroke-dashoffset:0;stroke-opacity:1"
       d="m 70.215892,11.088193 q -1.197754,0 -1.659668,0.273926 -0.461914,0.273926 -0.461914,0.93457 0,0.526367 0.34375,0.837891 0.349121,0.306152 0.945312,0.306152 0.821778,0 1.315918,-0.580078 0.499512,-0.585449 0.499512,-1.552246 v -0.220215 z m 1.971191,-0.408203 v 3.432129 h -0.988281 v -0.913086 q -0.338379,0.547851 -0.843262,0.811035 -0.504883,0.257812 -1.235351,0.257812 -0.923828,0 -1.47168,-0.515625 -0.54248,-0.520996 -0.54248,-1.391113 0,-1.015137 0.676757,-1.530762 0.682129,-0.515625 2.030274,-0.515625 h 1.385742 v -0.09668 q 0,-0.6821292 -0.451172,-1.0527346 -0.445801,-0.3759766 -1.256836,-0.3759766 -0.515625,0 -1.004394,0.1235352 -0.48877,0.1235351 -0.939942,0.3706054 V 8.3704195 q 0.542481,-0.2094727 1.052735,-0.3115234 0.510254,-0.1074219 0.993652,-0.1074219 1.305176,0 1.949707,0.6767578 0.644531,0.6767578 0.644531,2.051758 z"
       inkscape:connector-curvature="0" />
    <path
       id="path890"
       style="font-style:normal;font-variant:normal;font-weight:normal;font-stretch:normal;font-size:11px;font-family:'DejaVu Sans', Verdana, Geneva, sans-serif;-inkscape-font-specification:'DejaVu Sans, Verdana, Geneva, sans-serif, Normal';font-variant-ligatures:normal;font-variant-caps:normal;font-variant-numeric:normal;font-feature-settings:normal;text-align:start;writing-mode:lr-tb;text-anchor:start;vector-effect:none;fill:#010101;fill-opacity:0.3;stroke-width:0.1;stroke-linecap:butt;stroke-linejoin:miter;stroke-miterlimit:4;stroke-dasharray:none;stroke-dashoffset:0;stroke-opacity:1"
       d="m 79.223216,8.0964937 -2.175293,2.9272463 2.288086,3.088379 h -1.165527 l -1.750977,-2.363282 -1.750976,2.363282 h -1.165528 l 2.336426,-3.147461 -2.137695,-2.8681643 h 1.165527 l 1.595215,2.1430663 1.595215,-2.1430663 z"
       inkscape:connector-curvature="0" />
    <path
       id="path892"
       style="font-style:normal;font-variant:normal;font-weight:normal;font-stretch:normal;font-size:11px;font-family:'DejaVu Sans', Verdana, Geneva, sans-serif;-inkscape-font-specification:'DejaVu Sans, Verdana, Geneva, sans-serif, Normal';font-variant-ligatures:normal;font-variant-caps:normal;font-variant-numeric:normal;font-feature-settings:normal;text-align:start;writing-mode:lr-tb;text-anchor:start;vector-effect:none;fill:#010101;fill-opacity:0.3;stroke-width:0.1;stroke-linecap:butt;stroke-linejoin:miter;stroke-miterlimit:4;stroke-dasharray:none;stroke-dashoffset:0;stroke-opacity:1"
       d="m 83.235423,14.670712 q -0.418945,1.074219 -0.816406,1.401856 -0.397461,0.327637 -1.063477,0.327637 h -0.789551 v -0.827149 h 0.580079 q 0.408203,0 0.633789,-0.193359 0.225586,-0.19336 0.499511,-0.913086 l 0.177246,-0.451172 -2.433105,-5.9189453 h 1.047363 l 1.879883,4.7050783 1.879883,-4.7050783 h 1.047363 z"
       inkscape:connector-curvature="0" />
  </g>
  <rect
     ry="3.3782117"
     y="0"
     x="4.6019753e-15"
     height="20.044449"
     width="218.07542"
     id="rect972"
     style="opacity:1;vector-effect:none;fill:url(#linearGradient4625);fill-opacity:1;stroke:none;stroke-width:1.4740175;stroke-linecap:butt;stroke-linejoin:miter;stroke-miterlimit:4;stroke-dasharray:none;stroke-dashoffset:0;stroke-opacity:1;paint-order:stroke fill markers" />
  <rect
     style="opacity:1;vector-effect:none;fill:url(#linearGradient965);fill-opacity:1;stroke:none;stroke-width:1.4740175;stroke-linecap:butt;stroke-linejoin:miter;stroke-miterlimit:4;stroke-dasharray:none;stroke-dashoffset:0;stroke-opacity:1;paint-order:stroke fill markers"
     id="rect872"
     width="218.07542"
     height="20.044449"
     x="4.6019753e-15"
     y="0"
     ry="3.3782117" />
  <g
     aria-label="do1jlr.ansible_version"
     style="font-style:normal;font-variant:normal;font-weight:normal;font-stretch:normal;font-size:11px;line-height:normal;font-family:'DejaVu Sans', Verdana, Geneva, sans-serif;-inkscape-font-specification:'DejaVu Sans, Verdana, Geneva, sans-serif, Normal';font-variant-ligatures:normal;font-variant-position:normal;font-variant-caps:normal;font-variant-numeric:normal;font-variant-alternates:normal;font-feature-settings:normal;text-indent:0;text-align:start;text-decoration:none;text-decoration-line:none;text-decoration-style:solid;text-decoration-color:#000000;letter-spacing:normal;word-spacing:normal;text-transform:none;writing-mode:lr-tb;direction:ltr;text-orientation:mixed;dominant-baseline:auto;baseline-shift:baseline;text-anchor:middle;white-space:normal;shape-padding:0;opacity:1;vector-effect:none;fill:#010101;fill-opacity:0.3;stroke:none;stroke-width:0.1;stroke-linecap:butt;stroke-linejoin:miter;stroke-miterlimit:4;stroke-dasharray:none;stroke-dashoffset:0;stroke-opacity:1"
     id="text936">
    <path
       d="M 97.431778,9.7370062 V 6.4821234 h 0.988281 v 8.3574216 h -0.988281 v -0.902344 q -0.311523,0.53711 -0.789551,0.800293 -0.472656,0.257813 -1.138672,0.257813 -1.090332,0 -1.777832,-0.870117 -0.682129,-0.870117 -0.682129,-2.288086 0,-1.417969 0.682129,-2.2880861 0.6875,-0.8701172 1.777832,-0.8701172 0.666016,0 1.138672,0.2631836 0.478028,0.2578125 0.789551,0.7949219 z m -3.367676,2.1000978 q 0,1.090332 0.445801,1.713379 0.451172,0.617676 1.235352,0.617676 0.784179,0 1.235351,-0.617676 0.451172,-0.623047 0.451172,-1.713379 0,-1.090332 -0.451172,-1.708008 -0.451172,-0.6230468 -1.235351,-0.6230468 -0.78418,0 -1.235352,0.6230468 -0.445801,0.617676 -0.445801,1.708008 z"
       id="path920"
       inkscape:connector-curvature="0" />
    <path
       d="m 102.78676,9.5167913 q -0.79492,0 -1.25684,0.6230467 -0.46191,0.617676 -0.46191,1.697266 0,1.07959 0.45654,1.702637 0.46192,0.617675 1.26221,0.617675 0.78955,0 1.25146,-0.623047 0.46192,-0.623046 0.46192,-1.697265 0,-1.068848 -0.46192,-1.691895 -0.46191,-0.6284177 -1.25146,-0.6284177 z m 0,-0.8378906 q 1.28906,0 2.0249,0.8378906 0.73584,0.8378907 0.73584,2.3203127 0,1.477051 -0.73584,2.320312 -0.73584,0.837891 -2.0249,0.837891 -1.29444,0 -2.03028,-0.837891 -0.73046,-0.843261 -0.73046,-2.320312 0,-1.482422 0.73046,-2.3203127 0.73584,-0.8378906 2.03028,-0.8378906 z"
       id="path922"
       inkscape:connector-curvature="0" />
    <path
       d="m 107.51332,13.926459 h 1.77246 V 7.8087835 l -1.92822,0.3867188 V 7.207221 l 1.91748,-0.3867187 H 110.36 v 7.1059567 h 1.77246 v 0.913086 h -4.61914 z"
       id="path924"
       inkscape:connector-curvature="0" />
    <path
       d="m 114.18422,8.8239202 h 0.98828 v 6.1230468 q 0,1.149414 -0.44043,1.665039 -0.43506,0.515625 -1.40723,0.515625 h -0.37597 v -0.83789 h 0.26318 q 0.56397,0 0.76807,-0.263184 0.2041,-0.257813 0.2041,-1.07959 z m 0,-2.3417968 h 0.98828 v 1.2514648 h -0.98828 z"
       id="path926"
       inkscape:connector-curvature="0" />
    <path
       d="m 117.24037,6.4821234 h 0.98828 v 8.3574216 h -0.98828 z"
       id="path928"
       inkscape:connector-curvature="0" />
    <path
       d="m 123.78236,9.7477484 q -0.1665,-0.09668 -0.36523,-0.1396485 -0.19336,-0.04834 -0.42969,-0.04834 -0.83789,0 -1.28906,0.5478521 -0.4458,0.54248 -0.4458,1.562988 v 3.168945 h -0.99365 V 8.8239202 h 0.99365 v 0.9345704 q 0.31152,-0.5478516 0.81103,-0.8110352 0.49952,-0.2685547 1.21387,-0.2685547 0.10205,0 0.22559,0.016113 0.12353,0.010742 0.27392,0.037598 z"
       id="path930"
       inkscape:connector-curvature="0" />
    <path
       d="m 123.94887,13.475287 h 1.1333 v 1.364258 h -1.1333 z"
       id="path932"
       inkscape:connector-curvature="0" />
    <path
       d="m 130.03969,11.815619 q -1.19776,0 -1.65967,0.273926 -0.46191,0.273926 -0.46191,0.934571 0,0.526367 0.34375,0.83789 0.34912,0.306153 0.94531,0.306153 0.82178,0 1.31592,-0.580079 0.49951,-0.585449 0.49951,-1.552246 v -0.220215 z m 1.97119,-0.408203 v 3.432129 h -0.98828 v -0.913086 q -0.33838,0.547852 -0.84326,0.811035 -0.50489,0.257813 -1.23536,0.257813 -0.92382,0 -1.47167,-0.515625 -0.54249,-0.520996 -0.54249,-1.391113 0,-1.015137 0.67676,-1.530762 0.68213,-0.515625 2.03028,-0.515625 h 1.38574 v -0.09668 q 0,-0.682129 -0.45117,-1.0527341 -0.4458,-0.3759766 -1.25684,-0.3759766 -0.51562,0 -1.00439,0.1235352 -0.48877,0.1235352 -0.93995,0.3706055 V 9.097846 q 0.54248,-0.2094726 1.05274,-0.3115234 0.51025,-0.1074219 0.99365,-0.1074219 1.30518,0 1.94971,0.6767578 0.64453,0.6767575 0.64453,2.0517575 z"
       id="path934"
       inkscape:connector-curvature="0" />
    <path
       d="m 139.04701,11.208686 v 3.630859 h -0.98828 v -3.598633 q 0,-0.854003 -0.33301,-1.2783199 -0.333,-0.4243164 -0.99902,-0.4243164 -0.80029,0 -1.26221,0.5102543 -0.46191,0.510254 -0.46191,1.391113 v 3.399902 h -0.99365 V 8.8239202 h 0.99365 v 0.9345704 q 0.35449,-0.5424805 0.83252,-0.8110352 0.4834,-0.2685547 1.11181,-0.2685547 1.03663,0 1.56836,0.6445313 0.53174,0.6391601 0.53174,1.885254 z"
       id="path936"
       inkscape:connector-curvature="0" />
    <path
       d="m 144.85316,9.0011663 v 0.9345704 q -0.41894,-0.2148438 -0.87011,-0.3222657 -0.45117,-0.1074218 -0.93457,-0.1074218 -0.73584,0 -1.10645,0.2255859 -0.36523,0.2255859 -0.36523,0.6767579 0,0.34375 0.26318,0.54248 0.26318,0.19336 1.05811,0.370606 l 0.33838,0.0752 q 1.05273,0.225586 1.49316,0.63916 0.4458,0.408203 0.4458,1.144043 0,0.837891 -0.66602,1.32666 -0.66064,0.48877 -1.8208,0.48877 -0.48339,0 -1.00976,-0.09668 -0.521,-0.09131 -1.10108,-0.279297 v -1.020507 q 0.54786,0.284668 1.07959,0.429687 0.53174,0.139649 1.05274,0.139649 0.69824,0 1.07422,-0.236329 0.37597,-0.241699 0.37597,-0.676757 0,-0.402832 -0.27392,-0.617676 -0.26856,-0.214844 -1.18701,-0.413574 l -0.34375,-0.08057 q -0.91846,-0.193359 -1.32666,-0.59082 -0.40821,-0.402832 -0.40821,-1.101074 0,-0.8486332 0.60157,-1.3105472 0.60156,-0.4619141 1.708,-0.4619141 0.54785,0 1.03125,0.080566 0.4834,0.080566 0.8916,0.2416992 z"
       id="path938"
       inkscape:connector-curvature="0" />
    <path
       d="m 146.74916,8.8239202 h 0.98828 v 6.0156248 h -0.98828 z m 0,-2.3417968 h 0.98828 v 1.2514648 h -0.98828 z"
       id="path940"
       inkscape:connector-curvature="0" />
    <path
       d="m 154.12367,11.837104 q 0,-1.090332 -0.45117,-1.708008 -0.4458,-0.6230468 -1.22998,-0.6230468 -0.78418,0 -1.23535,0.6230468 -0.4458,0.617676 -0.4458,1.708008 0,1.090332 0.4458,1.713379 0.45117,0.617676 1.23535,0.617676 0.78418,0 1.22998,-0.617676 0.45117,-0.623047 0.45117,-1.713379 z m -3.3623,-2.1000978 q 0.31152,-0.5371094 0.78418,-0.7949219 0.47802,-0.2631836 1.13867,-0.2631836 1.0957,0 1.77783,0.8701172 0.6875,0.8701171 0.6875,2.2880861 0,1.417969 -0.6875,2.288086 -0.68213,0.870117 -1.77783,0.870117 -0.66065,0 -1.13867,-0.257813 -0.47266,-0.263183 -0.78418,-0.800293 v 0.902344 h -0.99365 V 6.4821234 h 0.99365 z"
       id="path942"
       inkscape:connector-curvature="0" />
    <path
       d="m 156.78773,6.4821234 h 0.98829 v 8.3574216 h -0.98829 z"
       id="path944"
       inkscape:connector-curvature="0" />
    <path
       d="m 164.9894,11.584662 v 0.483399 h -4.54395 q 0.0644,1.020508 0.6123,1.557617 0.55323,0.531738 1.53614,0.531738 0.56933,0 1.10107,-0.139648 0.53711,-0.139649 1.06348,-0.418945 v 0.93457 q -0.53174,0.225586 -1.09033,0.34375 -0.5586,0.118164 -1.1333,0.118164 -1.43946,0 -2.28272,-0.837891 -0.83789,-0.83789 -0.83789,-2.266601 0,-1.477051 0.79492,-2.3417971 0.80029,-0.8701172 2.15381,-0.8701172 1.21387,0 1.91748,0.7841797 0.70899,0.7788086 0.70899,2.1215816 z m -0.98829,-0.290039 q -0.0107,-0.811035 -0.45654,-1.294433 -0.44043,-0.4833987 -1.1709,-0.4833987 -0.82715,0 -1.32666,0.4672852 -0.49414,0.4672855 -0.56933,1.3159175 z"
       id="path946"
       inkscape:connector-curvature="0" />
    <path
       d="m 171.18227,16.665717 v 0.768067 h -5.71485 v -0.768067 z"
       id="path948"
       inkscape:connector-curvature="0" />
    <path
       d="m 171.40248,8.8239202 h 1.04736 l 1.87989,5.0488278 1.87988,-5.0488278 h 1.04736 l -2.25586,6.0156248 h -1.34277 z"
       id="path950"
       inkscape:connector-curvature="0" />
    <path
       d="m 183.76674,11.584662 v 0.483399 h -4.54395 q 0.0645,1.020508 0.61231,1.557617 0.55322,0.531738 1.53613,0.531738 0.56934,0 1.10108,-0.139648 0.5371,-0.139649 1.06347,-0.418945 v 0.93457 q -0.53174,0.225586 -1.09033,0.34375 -0.55859,0.118164 -1.1333,0.118164 -1.43945,0 -2.28272,-0.837891 -0.83789,-0.83789 -0.83789,-2.266601 0,-1.477051 0.79493,-2.3417971 0.80029,-0.8701172 2.1538,-0.8701172 1.21387,0 1.91748,0.7841797 0.70899,0.7788086 0.70899,2.1215816 z m -0.98828,-0.290039 q -0.0107,-0.811035 -0.45655,-1.294433 -0.44043,-0.4833987 -1.17089,-0.4833987 -0.82715,0 -1.32666,0.4672852 -0.49414,0.4672855 -0.56934,1.3159175 z"
       id="path952"
       inkscape:connector-curvature="0" />
    <path
       d="m 188.87465,9.7477484 q -0.1665,-0.09668 -0.36524,-0.1396485 -0.19335,-0.04834 -0.42968,-0.04834 -0.83789,0 -1.28907,0.5478521 -0.4458,0.54248 -0.4458,1.562988 v 3.168945 h -0.99365 V 8.8239202 h 0.99365 v 0.9345704 q 0.31153,-0.5478516 0.81104,-0.8110352 0.49951,-0.2685547 1.21387,-0.2685547 0.10205,0 0.22558,0.016113 0.12354,0.010742 0.27393,0.037598 z"
       id="path954"
       inkscape:connector-curvature="0" />
    <path
       d="m 193.74623,9.0011663 v 0.9345704 q -0.41894,-0.2148438 -0.87012,-0.3222657 -0.45117,-0.1074218 -0.93457,-0.1074218 -0.73584,0 -1.10644,0.2255859 -0.36524,0.2255859 -0.36524,0.6767579 0,0.34375 0.26319,0.54248 0.26318,0.19336 1.0581,0.370606 l 0.33838,0.0752 q 1.05274,0.225586 1.49317,0.63916 0.4458,0.408203 0.4458,1.144043 0,0.837891 -0.66602,1.32666 -0.66064,0.48877 -1.8208,0.48877 -0.4834,0 -1.00977,-0.09668 -0.52099,-0.09131 -1.10107,-0.279297 v -1.020507 q 0.54785,0.284668 1.07959,0.429687 0.53174,0.139649 1.05273,0.139649 0.69825,0 1.07422,-0.236329 0.37598,-0.241699 0.37598,-0.676757 0,-0.402832 -0.27393,-0.617676 -0.26855,-0.214844 -1.18701,-0.413574 l -0.34375,-0.08057 q -0.91845,-0.193359 -1.32666,-0.59082 -0.4082,-0.402832 -0.4082,-1.101074 0,-0.8486332 0.60156,-1.3105472 0.60156,-0.4619141 1.70801,-0.4619141 0.54785,0 1.03125,0.080566 0.4834,0.080566 0.8916,0.2416992 z"
       id="path956"
       inkscape:connector-curvature="0" />
    <path
       d="m 195.64223,8.8239202 h 0.98828 v 6.0156248 h -0.98828 z m 0,-2.3417968 h 0.98828 v 1.2514648 h -0.98828 z"
       id="path958"
       inkscape:connector-curvature="0" />
    <path
       d="m 201.02943,9.5167913 q -0.79492,0 -1.25683,0.6230467 -0.46192,0.617676 -0.46192,1.697266 0,1.07959 0.45655,1.702637 0.46191,0.617675 1.2622,0.617675 0.78955,0 1.25147,-0.623047 0.46191,-0.623046 0.46191,-1.697265 0,-1.068848 -0.46191,-1.691895 -0.46192,-0.6284177 -1.25147,-0.6284177 z m 0,-0.8378906 q 1.28907,0 2.02491,0.8378906 0.73584,0.8378907 0.73584,2.3203127 0,1.477051 -0.73584,2.320312 -0.73584,0.837891 -2.02491,0.837891 -1.29443,0 -2.03027,-0.837891 -0.73047,-0.843261 -0.73047,-2.320312 0,-1.482422 0.73047,-2.3203127 0.73584,-0.8378906 2.03027,-0.8378906 z"
       id="path960"
       inkscape:connector-curvature="0" />
    <path
       d="m 210.42885,11.208686 v 3.630859 h -0.98828 v -3.598633 q 0,-0.854003 -0.33301,-1.2783199 -0.33301,-0.4243164 -0.99902,-0.4243164 -0.8003,0 -1.26221,0.5102543 -0.46192,0.510254 -0.46192,1.391113 v 3.399902 h -0.99365 V 8.8239202 h 0.99365 v 0.9345704 q 0.3545,-0.5424805 0.83252,-0.8110352 0.4834,-0.2685547 1.11182,-0.2685547 1.03662,0 1.56836,0.6445313 0.53174,0.6391601 0.53174,1.885254 z"
       id="path962"
       inkscape:connector-curvature="0" />
  </g>
  <g
     aria-label="do1jlr.ansible_version"
     style="font-style:normal;font-variant:normal;font-weight:normal;font-stretch:normal;font-size:11px;line-height:1.25;font-family:'DejaVu Sans', Verdana, Geneva, sans-serif;-inkscape-font-specification:'DejaVu Sans, Verdana, Geneva, sans-serif, Normal';font-variant-ligatures:normal;font-variant-caps:normal;font-variant-numeric:normal;font-feature-settings:normal;text-align:start;letter-spacing:0px;word-spacing:0px;writing-mode:lr-tb;text-anchor:start;fill:#ffffff;fill-opacity:1;stroke:none"
     id="text932">
    <path
       d="M 97.454193,9.1889648 V 5.934082 h 0.988281 v 8.357422 H 97.454193 V 13.38916 q -0.311523,0.53711 -0.789551,0.800293 -0.472656,0.257813 -1.138672,0.257813 -1.090332,0 -1.777832,-0.870118 -0.682128,-0.870117 -0.682128,-2.288085 0,-1.4179692 0.682128,-2.2880864 0.6875,-0.8701172 1.777832,-0.8701172 0.666016,0 1.138672,0.2631836 0.478028,0.2578125 0.789551,0.7949218 z m -3.367676,2.1000982 q 0,1.090332 0.445801,1.713378 0.451172,0.617676 1.235352,0.617676 0.784179,0 1.235351,-0.617676 0.451172,-0.623046 0.451172,-1.713378 0,-1.090333 -0.451172,-1.7080083 -0.451172,-0.6230469 -1.235351,-0.6230469 -0.78418,0 -1.235352,0.6230469 -0.445801,0.6176753 -0.445801,1.7080083 z"
       id="path875"
       inkscape:connector-curvature="0" />
    <path
       d="m 102.80917,8.96875 q -0.79492,0 -1.25683,0.6230469 -0.46192,0.6176761 -0.46192,1.6972661 0,1.079589 0.45655,1.702636 0.46191,0.617676 1.2622,0.617676 0.78955,0 1.25147,-0.623047 0.46191,-0.623047 0.46191,-1.697265 0,-1.068848 -0.46191,-1.691895 -0.46192,-0.628418 -1.25147,-0.628418 z m 0,-0.8378906 q 1.28907,0 2.02491,0.8378906 0.73584,0.8378906 0.73584,2.320313 0,1.47705 -0.73584,2.320312 -0.73584,0.837891 -2.02491,0.837891 -1.29443,0 -2.03027,-0.837891 -0.73047,-0.843262 -0.73047,-2.320312 0,-1.4824224 0.73047,-2.320313 0.73584,-0.8378906 2.03027,-0.8378906 z"
       id="path877"
       inkscape:connector-curvature="0" />
    <path
       d="m 107.53574,13.378418 h 1.77246 V 7.2607422 l -1.92823,0.3867187 V 6.6591797 l 1.91748,-0.3867188 h 1.08497 v 7.1059571 h 1.77246 v 0.913086 h -4.61914 z"
       id="path879"
       inkscape:connector-curvature="0" />
    <path
       d="m 114.20663,8.2758789 h 0.98829 v 6.1230471 q 0,1.149414 -0.44043,1.665039 -0.43506,0.515625 -1.40723,0.515625 h -0.37598 v -0.837891 h 0.26319 q 0.56396,0 0.76806,-0.263183 0.2041,-0.257813 0.2041,-1.07959 z m 0,-2.3417969 h 0.98829 v 1.2514649 h -0.98829 z"
       id="path881"
       inkscape:connector-curvature="0" />
    <path
       d="m 117.26279,5.934082 h 0.98828 v 8.357422 h -0.98828 z"
       id="path883"
       inkscape:connector-curvature="0" />
    <path
       d="m 123.80478,9.199707 q -0.1665,-0.09668 -0.36524,-0.1396484 -0.19335,-0.04834 -0.42968,-0.04834 -0.83789,0 -1.28907,0.5478515 -0.4458,0.5424809 -0.4458,1.5629889 v 3.168945 h -0.99365 V 8.2758789 h 0.99365 v 0.9345703 q 0.31153,-0.5478515 0.81104,-0.8110351 0.49951,-0.2685547 1.21387,-0.2685547 0.10205,0 0.22558,0.016113 0.12354,0.010742 0.27393,0.037598 z"
       id="path885"
       inkscape:connector-curvature="0" />
    <path
       d="m 123.97128,12.927246 h 1.1333 v 1.364258 h -1.1333 z"
       id="path887"
       inkscape:connector-curvature="0" />
    <path
       d="m 130.0621,11.267578 q -1.19775,0 -1.65966,0.273926 -0.46192,0.273926 -0.46192,0.93457 0,0.526367 0.34375,0.837891 0.34912,0.306152 0.94531,0.306152 0.82178,0 1.31592,-0.580078 0.49951,-0.585449 0.49951,-1.552246 v -0.220215 z m 1.97119,-0.408203 v 3.432129 h -0.98828 v -0.913086 q -0.33838,0.547852 -0.84326,0.811035 -0.50488,0.257813 -1.23535,0.257813 -0.92383,0 -1.47168,-0.515625 -0.54248,-0.520996 -0.54248,-1.391114 0,-1.015136 0.67676,-1.530761 0.68213,-0.515625 2.03027,-0.515625 h 1.38574 v -0.09668 q 0,-0.682129 -0.45117,-1.0527344 -0.4458,-0.3759766 -1.25683,-0.3759766 -0.51563,0 -1.0044,0.1235352 -0.48877,0.1235351 -0.93994,0.3706054 V 8.5498047 q 0.54248,-0.2094727 1.05273,-0.3115234 0.51026,-0.1074219 0.99366,-0.1074219 1.30517,0 1.9497,0.6767578 0.64453,0.6767578 0.64453,2.0517578 z"
       id="path889"
       inkscape:connector-curvature="0" />
    <path
       d="m 139.06943,10.660645 v 3.630859 h -0.98828 v -3.598633 q 0,-0.8540038 -0.33301,-1.2783202 -0.33301,-0.4243164 -0.99903,-0.4243164 -0.80029,0 -1.2622,0.5102539 -0.46192,0.5102537 -0.46192,1.3911137 v 3.399902 h -0.99365 V 8.2758789 h 0.99365 v 0.9345703 q 0.3545,-0.5424804 0.83252,-0.8110351 0.4834,-0.2685547 1.11182,-0.2685547 1.03662,0 1.56836,0.6445312 0.53174,0.6391602 0.53174,1.8852544 z"
       id="path891"
       inkscape:connector-curvature="0" />
    <path
       d="m 144.87558,8.453125 v 0.9345703 q -0.41895,-0.2148437 -0.87012,-0.3222656 -0.45117,-0.1074219 -0.93457,-0.1074219 -0.73584,0 -1.10644,0.225586 -0.36524,0.2255859 -0.36524,0.6767578 0,0.3437504 0.26319,0.5424804 0.26318,0.193359 1.0581,0.370606 l 0.33838,0.07519 q 1.05273,0.225586 1.49316,0.63916 0.44581,0.408203 0.44581,1.144043 0,0.837891 -0.66602,1.32666 -0.66064,0.48877 -1.8208,0.48877 -0.4834,0 -1.00977,-0.09668 -0.52099,-0.09131 -1.10107,-0.279297 v -1.020508 q 0.54785,0.284668 1.07959,0.429688 0.53174,0.139648 1.05273,0.139648 0.69825,0 1.07422,-0.236328 0.37598,-0.241699 0.37598,-0.676758 0,-0.402832 -0.27393,-0.617676 -0.26855,-0.214843 -1.18701,-0.413574 l -0.34375,-0.08057 q -0.91846,-0.19336 -1.32666,-0.59082 -0.4082,-0.402832 -0.4082,-1.1010747 0,-0.8486328 0.60156,-1.3105469 0.60156,-0.461914 1.70801,-0.461914 0.54785,0 1.03125,0.080566 0.4834,0.080566 0.8916,0.2416992 z"
       id="path893"
       inkscape:connector-curvature="0" />
    <path
       d="m 146.77158,8.2758789 h 0.98828 v 6.0156251 h -0.98828 z m 0,-2.3417969 h 0.98828 v 1.2514649 h -0.98828 z"
       id="path895"
       inkscape:connector-curvature="0" />
    <path
       d="m 154.14609,11.289063 q 0,-1.090333 -0.45117,-1.7080083 -0.44581,-0.6230469 -1.22998,-0.6230469 -0.78418,0 -1.23536,0.6230469 -0.4458,0.6176753 -0.4458,1.7080083 0,1.090332 0.4458,1.713378 0.45118,0.617676 1.23536,0.617676 0.78417,0 1.22998,-0.617676 0.45117,-0.623046 0.45117,-1.713378 z m -3.36231,-2.1000982 q 0.31153,-0.5371093 0.78418,-0.7949218 0.47803,-0.2631836 1.13867,-0.2631836 1.09571,0 1.77784,0.8701172 0.6875,0.8701172 0.6875,2.2880864 0,1.417968 -0.6875,2.288085 -0.68213,0.870118 -1.77784,0.870118 -0.66064,0 -1.13867,-0.257813 -0.47265,-0.263183 -0.78418,-0.800293 v 0.902344 h -0.99365 V 5.934082 h 0.99365 z"
       id="path897"
       inkscape:connector-curvature="0" />
    <path
       d="m 156.81015,5.934082 h 0.98828 v 8.357422 h -0.98828 z"
       id="path899"
       inkscape:connector-curvature="0" />
    <path
       d="m 165.01181,11.036621 v 0.483399 h -4.54395 q 0.0645,1.020507 0.61231,1.557617 0.55322,0.531738 1.53613,0.531738 0.56934,0 1.10108,-0.139648 0.53711,-0.139649 1.06347,-0.418946 v 0.934571 q -0.53174,0.225586 -1.09033,0.34375 -0.55859,0.118164 -1.1333,0.118164 -1.43945,0 -2.28271,-0.837891 -0.8379,-0.837891 -0.8379,-2.266602 0,-1.4770503 0.79493,-2.3417964 0.80029,-0.8701172 2.15381,-0.8701172 1.21386,0 1.91748,0.7841797 0.70898,0.7788086 0.70898,2.1215819 z m -0.98828,-0.290039 q -0.0107,-0.8110351 -0.45654,-1.2944336 -0.44043,-0.4833984 -1.1709,-0.4833984 -0.82715,0 -1.32666,0.4672852 -0.49414,0.4672851 -0.56934,1.3159178 z"
       id="path901"
       inkscape:connector-curvature="0" />
    <path
       d="m 171.20468,16.117676 v 0.768066 h -5.71484 v -0.768066 z"
       id="path903"
       inkscape:connector-curvature="0" />
    <path
       d="m 171.4249,8.2758789 h 1.04736 l 1.87988,5.0488281 1.87989,-5.0488281 h 1.04736 l -2.25586,6.0156251 h -1.34277 z"
       id="path905"
       inkscape:connector-curvature="0" />
    <path
       d="m 183.78915,11.036621 v 0.483399 h -4.54394 q 0.0645,1.020507 0.6123,1.557617 0.55323,0.531738 1.53614,0.531738 0.56933,0 1.10107,-0.139648 0.53711,-0.139649 1.06348,-0.418946 v 0.934571 q -0.53174,0.225586 -1.09034,0.34375 -0.55859,0.118164 -1.1333,0.118164 -1.43945,0 -2.28271,-0.837891 -0.83789,-0.837891 -0.83789,-2.266602 0,-1.4770503 0.79492,-2.3417964 0.80029,-0.8701172 2.15381,-0.8701172 1.21387,0 1.91748,0.7841797 0.70898,0.7788086 0.70898,2.1215819 z m -0.98828,-0.290039 Q 182.79013,9.9355469 182.34433,9.4521484 181.9039,8.96875 181.17343,8.96875 q -0.82715,0 -1.32666,0.4672852 -0.49414,0.4672851 -0.56933,1.3159178 z"
       id="path907"
       inkscape:connector-curvature="0" />
    <path
       d="m 188.89706,9.199707 q -0.1665,-0.09668 -0.36523,-0.1396484 -0.19336,-0.04834 -0.42969,-0.04834 -0.83789,0 -1.28906,0.5478515 -0.4458,0.5424809 -0.4458,1.5629889 v 3.168945 h -0.99365 V 8.2758789 h 0.99365 v 0.9345703 q 0.31152,-0.5478515 0.81103,-0.8110351 0.49952,-0.2685547 1.21387,-0.2685547 0.10205,0 0.22559,0.016113 0.12353,0.010742 0.27392,0.037598 z"
       id="path909"
       inkscape:connector-curvature="0" />
    <path
       d="m 193.76865,8.453125 v 0.9345703 q -0.41895,-0.2148437 -0.87012,-0.3222656 -0.45117,-0.1074219 -0.93457,-0.1074219 -0.73584,0 -1.10645,0.225586 -0.36523,0.2255859 -0.36523,0.6767578 0,0.3437504 0.26318,0.5424804 0.26319,0.193359 1.05811,0.370606 l 0.33838,0.07519 q 1.05273,0.225586 1.49316,0.63916 0.4458,0.408203 0.4458,1.144043 0,0.837891 -0.66601,1.32666 -0.66065,0.48877 -1.8208,0.48877 -0.4834,0 -1.00977,-0.09668 -0.521,-0.09131 -1.10107,-0.279297 v -1.020508 q 0.54785,0.284668 1.07959,0.429688 0.53173,0.139648 1.05273,0.139648 0.69824,0 1.07422,-0.236328 0.37598,-0.241699 0.37598,-0.676758 0,-0.402832 -0.27393,-0.617676 -0.26856,-0.214843 -1.18701,-0.413574 l -0.34375,-0.08057 q -0.91846,-0.19336 -1.32666,-0.59082 -0.40821,-0.402832 -0.40821,-1.1010747 0,-0.8486328 0.60157,-1.3105469 0.60156,-0.461914 1.708,-0.461914 0.54786,0 1.03125,0.080566 0.4834,0.080566 0.89161,0.2416992 z"
       id="path911"
       inkscape:connector-curvature="0" />
    <path
       d="m 195.66464,8.2758789 h 0.98828 v 6.0156251 h -0.98828 z m 0,-2.3417969 h 0.98828 v 1.2514649 h -0.98828 z"
       id="path913"
       inkscape:connector-curvature="0" />
    <path
       d="m 201.05185,8.96875 q -0.79492,0 -1.25684,0.6230469 -0.46191,0.6176761 -0.46191,1.6972661 0,1.079589 0.45654,1.702636 0.46192,0.617676 1.26221,0.617676 0.78955,0 1.25146,-0.623047 0.46192,-0.623047 0.46192,-1.697265 0,-1.068848 -0.46192,-1.691895 Q 201.8414,8.96875 201.05185,8.96875 Z m 0,-0.8378906 q 1.28906,0 2.0249,0.8378906 0.73584,0.8378906 0.73584,2.320313 0,1.47705 -0.73584,2.320312 -0.73584,0.837891 -2.0249,0.837891 -1.29443,0 -2.03027,-0.837891 -0.73047,-0.843262 -0.73047,-2.320312 0,-1.4824224 0.73047,-2.320313 0.73584,-0.8378906 2.03027,-0.8378906 z"
       id="path915"
       inkscape:connector-curvature="0" />
    <path
       d="m 210.45126,10.660645 v 3.630859 h -0.98828 v -3.598633 q 0,-0.8540038 -0.33301,-1.2783202 -0.333,-0.4243164 -0.99902,-0.4243164 -0.80029,0 -1.26221,0.5102539 -0.46191,0.5102537 -0.46191,1.3911137 v 3.399902 h -0.99365 V 8.2758789 h 0.99365 v 0.9345703 q 0.35449,-0.5424804 0.83252,-0.8110351 0.4834,-0.2685547 1.11182,-0.2685547 1.03662,0 1.56836,0.6445312 0.53173,0.6391602 0.53173,1.8852544 z"
       id="path917"
       inkscape:connector-curvature="0" />
  </g>
  <g
     aria-label="ansible-galaxy"
     style="font-style:normal;font-weight:normal;font-size:40px;line-height:1.25;font-family:sans-serif;letter-spacing:0px;word-spacing:0px;fill:#ffffff;fill-opacity:1;stroke:none"
     id="text835">
    <path
       d="m 10.161693,11.088193 q -1.1977543,0 -1.6596683,0.273926 -0.4619141,0.273926 -0.4619141,0.93457 0,0.526367 0.34375,0.837891 0.3491211,0.306152 0.9453125,0.306152 0.8217769,0 1.3159179,-0.580078 0.499512,-0.585449 0.499512,-1.552246 v -0.220215 z m 1.971191,-0.408203 v 3.432129 h -0.988281 v -0.913086 q -0.338379,0.547851 -0.843262,0.811035 -0.5048828,0.257812 -1.2353515,0.257812 -0.9238281,0 -1.4716797,-0.515625 -0.5424805,-0.520996 -0.5424805,-1.391113 0,-1.015137 0.6767579,-1.530762 0.6821289,-0.515625 2.0302734,-0.515625 h 1.3857424 v -0.09668 q 0,-0.6821292 -0.451172,-1.0527346 Q 10.24763,8.7893648 9.436595,8.7893648 8.92097,8.7893648 8.4322004,8.9129 7.9434309,9.0364351 7.492259,9.2835054 V 8.3704195 Q 8.0347395,8.1609468 8.5449934,8.0588961 9.0552473,7.9514742 9.5386457,7.9514742 q 1.3051763,0 1.9497073,0.6767578 0.644531,0.6767578 0.644531,2.051758 z"
       style="font-style:normal;font-variant:normal;font-weight:normal;font-stretch:normal;font-size:11px;font-family:'DejaVu Sans', Verdana, Geneva, sans-serif;-inkscape-font-specification:'DejaVu Sans, Verdana, Geneva, sans-serif, Normal';font-variant-ligatures:normal;font-variant-caps:normal;font-variant-numeric:normal;font-feature-settings:normal;text-align:start;writing-mode:lr-tb;text-anchor:start;fill:#ffffff"
       id="path837"
       inkscape:connector-curvature="0" />
    <path
       d="m 19.169017,10.481259 v 3.63086 h -0.988281 v -3.598633 q 0,-0.854004 -0.333008,-1.2783204 -0.333008,-0.4243164 -0.999024,-0.4243164 -0.800293,0 -1.262207,0.5102539 -0.461914,0.5102539 -0.461914,1.3911129 v 3.399903 H 14.130931 V 8.0964937 h 0.993652 V 9.031064 q 0.354492,-0.5424804 0.83252,-0.8110351 0.483398,-0.2685547 1.111816,-0.2685547 1.036621,0 1.56836,0.6445312 0.531738,0.6391602 0.531738,1.8852536 z"
       style="font-style:normal;font-variant:normal;font-weight:normal;font-stretch:normal;font-size:11px;font-family:'DejaVu Sans', Verdana, Geneva, sans-serif;-inkscape-font-specification:'DejaVu Sans, Verdana, Geneva, sans-serif, Normal';font-variant-ligatures:normal;font-variant-caps:normal;font-variant-numeric:normal;font-feature-settings:normal;text-align:start;writing-mode:lr-tb;text-anchor:start;fill:#ffffff"
       id="path839"
       inkscape:connector-curvature="0" />
    <path
       d="M 24.975169,8.2737398 V 9.2083101 Q 24.556224,8.9934664 24.105052,8.8860445 23.65388,8.7786226 23.170482,8.7786226 q -0.73584,0 -1.106446,0.225586 -0.365234,0.2255859 -0.365234,0.6767578 0,0.3437496 0.263184,0.5424806 0.263183,0.193359 1.058105,0.370605 l 0.338379,0.0752 q 1.052734,0.225586 1.493164,0.63916 0.445801,0.408203 0.445801,1.144043 0,0.83789 -0.666016,1.32666 -0.660644,0.488769 -1.820801,0.488769 -0.483398,0 -1.009765,-0.09668 -0.520996,-0.09131 -1.101074,-0.279297 v -1.020508 q 0.547851,0.284668 1.079589,0.429688 0.531739,0.139648 1.052735,0.139648 0.698242,0 1.074219,-0.236328 0.375976,-0.241699 0.375976,-0.676758 0,-0.402832 -0.273926,-0.617676 -0.268554,-0.214843 -1.187011,-0.413574 l -0.34375,-0.08057 q -0.918457,-0.19336 -1.326661,-0.590821 -0.408203,-0.402832 -0.408203,-1.1010739 0,-0.8486328 0.601563,-1.3105468 0.601562,-0.4619141 1.708008,-0.4619141 0.547851,0 1.03125,0.080566 0.483398,0.080566 0.891601,0.2416992 z"
       style="font-style:normal;font-variant:normal;font-weight:normal;font-stretch:normal;font-size:11px;font-family:'DejaVu Sans', Verdana, Geneva, sans-serif;-inkscape-font-specification:'DejaVu Sans, Verdana, Geneva, sans-serif, Normal';font-variant-ligatures:normal;font-variant-caps:normal;font-variant-numeric:normal;font-feature-settings:normal;text-align:start;writing-mode:lr-tb;text-anchor:start;fill:#ffffff"
       id="path841"
       inkscape:connector-curvature="0" />
    <path
       d="m 26.871165,8.0964937 h 0.988282 v 6.0156253 h -0.988282 z m 0,-2.3417969 h 0.988282 v 1.2514649 h -0.988282 z"
       style="font-style:normal;font-variant:normal;font-weight:normal;font-stretch:normal;font-size:11px;font-family:'DejaVu Sans', Verdana, Geneva, sans-serif;-inkscape-font-specification:'DejaVu Sans, Verdana, Geneva, sans-serif, Normal';font-variant-ligatures:normal;font-variant-caps:normal;font-variant-numeric:normal;font-feature-settings:normal;text-align:start;writing-mode:lr-tb;text-anchor:start;fill:#ffffff"
       id="path843"
       inkscape:connector-curvature="0" />
    <path
       d="m 34.245677,11.109677 q 0,-1.090332 -0.451172,-1.7080075 -0.445801,-0.6230469 -1.22998,-0.6230469 -0.78418,0 -1.235352,0.6230469 -0.445801,0.6176755 -0.445801,1.7080075 0,1.090332 0.445801,1.713379 0.451172,0.617676 1.235352,0.617676 0.784179,0 1.22998,-0.617676 0.451172,-0.623047 0.451172,-1.713379 z M 30.883372,9.0095797 q 0.311524,-0.5371094 0.78418,-0.7949219 0.478027,-0.2631836 1.138672,-0.2631836 1.095703,0 1.777832,0.8701172 0.6875,0.8701172 0.6875,2.2880856 0,1.417969 -0.6875,2.288086 -0.682129,0.870117 -1.777832,0.870117 -0.660645,0 -1.138672,-0.257812 -0.472656,-0.263184 -0.78418,-0.800293 v 0.902344 H 29.88972 V 5.7546968 h 0.993652 z"
       style="font-style:normal;font-variant:normal;font-weight:normal;font-stretch:normal;font-size:11px;font-family:'DejaVu Sans', Verdana, Geneva, sans-serif;-inkscape-font-specification:'DejaVu Sans, Verdana, Geneva, sans-serif, Normal';font-variant-ligatures:normal;font-variant-caps:normal;font-variant-numeric:normal;font-feature-settings:normal;text-align:start;writing-mode:lr-tb;text-anchor:start;fill:#ffffff"
       id="path845"
       inkscape:connector-curvature="0" />
    <path
       d="m 36.909739,5.7546968 h 0.988282 v 8.3574222 h -0.988282 z"
       style="font-style:normal;font-variant:normal;font-weight:normal;font-stretch:normal;font-size:11px;font-family:'DejaVu Sans', Verdana, Geneva, sans-serif;-inkscape-font-specification:'DejaVu Sans, Verdana, Geneva, sans-serif, Normal';font-variant-ligatures:normal;font-variant-caps:normal;font-variant-numeric:normal;font-feature-settings:normal;text-align:start;writing-mode:lr-tb;text-anchor:start;fill:#ffffff"
       id="path847"
       inkscape:connector-curvature="0" />
    <path
       d="m 45.1114,10.857236 v 0.483398 h -4.543946 q 0.06445,1.020508 0.612305,1.557618 0.553223,0.531738 1.536133,0.531738 0.569336,0 1.101074,-0.139649 0.537109,-0.139648 1.063477,-0.418945 v 0.93457 q -0.531739,0.225586 -1.090332,0.34375 -0.558594,0.118164 -1.133301,0.118164 -1.439453,0 -2.282715,-0.83789 -0.837891,-0.837891 -0.837891,-2.266602 0,-1.4770505 0.794922,-2.3417966 0.800293,-0.8701172 2.153809,-0.8701172 1.213867,0 1.91748,0.7841797 Q 45.1114,9.5144625 45.1114,10.857236 Z M 44.123118,10.567197 Q 44.112376,9.7561617 43.666575,9.2727633 43.226146,8.7893648 42.495677,8.7893648 q -0.827148,0 -1.32666,0.4672852 -0.494141,0.4672851 -0.569336,1.315918 z"
       style="font-style:normal;font-variant:normal;font-weight:normal;font-stretch:normal;font-size:11px;font-family:'DejaVu Sans', Verdana, Geneva, sans-serif;-inkscape-font-specification:'DejaVu Sans, Verdana, Geneva, sans-serif, Normal';font-variant-ligatures:normal;font-variant-caps:normal;font-variant-numeric:normal;font-feature-settings:normal;text-align:start;writing-mode:lr-tb;text-anchor:start;fill:#ffffff"
       id="path849"
       inkscape:connector-curvature="0" />
    <path
       d="m 46.233958,10.658505 h 2.89502 v 0.88086 h -2.89502 z"
       style="font-style:normal;font-variant:normal;font-weight:normal;font-stretch:normal;font-size:11px;font-family:'DejaVu Sans', Verdana, Geneva, sans-serif;-inkscape-font-specification:'DejaVu Sans, Verdana, Geneva, sans-serif, Normal';font-variant-ligatures:normal;font-variant-caps:normal;font-variant-numeric:normal;font-feature-settings:normal;text-align:start;writing-mode:lr-tb;text-anchor:start;fill:#ffffff"
       id="path851"
       inkscape:connector-curvature="0" />
    <path
       d="m 54.661204,11.034482 q 0,-1.0742187 -0.4458,-1.6650391 -0.44043,-0.5908203 -1.240723,-0.5908203 -0.794922,0 -1.240723,0.5908203 -0.440429,0.5908204 -0.440429,1.6650391 0,1.068848 0.440429,1.659668 0.445801,0.59082 1.240723,0.59082 0.800293,0 1.240723,-0.59082 0.4458,-0.59082 0.4458,-1.659668 z m 0.988282,2.331055 q 0,1.536133 -0.682129,2.282715 -0.682129,0.751953 -2.089356,0.751953 -0.520996,0 -0.98291,-0.08057 -0.461914,-0.0752 -0.896973,-0.236328 v -0.961426 q 0.435059,0.236328 0.859375,0.349121 0.424317,0.112793 0.864746,0.112793 0.972168,0 1.455567,-0.510253 0.483398,-0.504883 0.483398,-1.530762 v -0.48877 q -0.306152,0.531739 -0.784179,0.794922 -0.478028,0.263184 -1.144043,0.263184 -1.106446,0 -1.783203,-0.843262 -0.676758,-0.843262 -0.676758,-2.234375 0,-1.3964844 0.676758,-2.2397461 0.676757,-0.8432617 1.783203,-0.8432617 0.666015,0 1.144043,0.2631836 0.478027,0.2631836 0.784179,0.7949219 v -0.913086 h 0.988282 z"
       style="font-style:normal;font-variant:normal;font-weight:normal;font-stretch:normal;font-size:11px;font-family:'DejaVu Sans', Verdana, Geneva, sans-serif;-inkscape-font-specification:'DejaVu Sans, Verdana, Geneva, sans-serif, Normal';font-variant-ligatures:normal;font-variant-caps:normal;font-variant-numeric:normal;font-feature-settings:normal;text-align:start;writing-mode:lr-tb;text-anchor:start;fill:#ffffff"
       id="path853"
       inkscape:connector-curvature="0" />
    <path
       d="m 60.419017,11.088193 q -1.197754,0 -1.659668,0.273926 -0.461914,0.273926 -0.461914,0.93457 0,0.526367 0.34375,0.837891 0.349121,0.306152 0.945312,0.306152 0.821778,0 1.315918,-0.580078 0.499512,-0.585449 0.499512,-1.552246 v -0.220215 z m 1.971191,-0.408203 v 3.432129 h -0.988281 v -0.913086 q -0.338379,0.547851 -0.843262,0.811035 -0.504883,0.257812 -1.235351,0.257812 -0.923828,0 -1.47168,-0.515625 -0.54248,-0.520996 -0.54248,-1.391113 0,-1.015137 0.676757,-1.530762 0.682129,-0.515625 2.030274,-0.515625 h 1.385742 v -0.09668 q 0,-0.6821292 -0.451172,-1.0527346 -0.445801,-0.3759766 -1.256836,-0.3759766 -0.515625,0 -1.004394,0.1235352 -0.48877,0.1235351 -0.939942,0.3706054 V 8.3704195 q 0.542481,-0.2094727 1.052735,-0.3115234 0.510254,-0.1074219 0.993652,-0.1074219 1.305176,0 1.949707,0.6767578 0.644531,0.6767578 0.644531,2.051758 z"
       style="font-style:normal;font-variant:normal;font-weight:normal;font-stretch:normal;font-size:11px;font-family:'DejaVu Sans', Verdana, Geneva, sans-serif;-inkscape-font-specification:'DejaVu Sans, Verdana, Geneva, sans-serif, Normal';font-variant-ligatures:normal;font-variant-caps:normal;font-variant-numeric:normal;font-feature-settings:normal;text-align:start;writing-mode:lr-tb;text-anchor:start;fill:#ffffff"
       id="path855"
       inkscape:connector-curvature="0" />
    <path
       d="m 64.425853,5.7546968 h 0.988281 v 8.3574222 h -0.988281 z"
       style="font-style:normal;font-variant:normal;font-weight:normal;font-stretch:normal;font-size:11px;font-family:'DejaVu Sans', Verdana, Geneva, sans-serif;-inkscape-font-specification:'DejaVu Sans, Verdana, Geneva, sans-serif, Normal';font-variant-ligatures:normal;font-variant-caps:normal;font-variant-numeric:normal;font-feature-settings:normal;text-align:start;writing-mode:lr-tb;text-anchor:start;fill:#ffffff"
       id="path857"
       inkscape:connector-curvature="0" />
    <path
       d="m 70.215892,11.088193 q -1.197754,0 -1.659668,0.273926 -0.461914,0.273926 -0.461914,0.93457 0,0.526367 0.34375,0.837891 0.349121,0.306152 0.945312,0.306152 0.821778,0 1.315918,-0.580078 0.499512,-0.585449 0.499512,-1.552246 v -0.220215 z m 1.971191,-0.408203 v 3.432129 h -0.988281 v -0.913086 q -0.338379,0.547851 -0.843262,0.811035 -0.504883,0.257812 -1.235351,0.257812 -0.923828,0 -1.47168,-0.515625 -0.54248,-0.520996 -0.54248,-1.391113 0,-1.015137 0.676757,-1.530762 0.682129,-0.515625 2.030274,-0.515625 h 1.385742 v -0.09668 q 0,-0.6821292 -0.451172,-1.0527346 -0.445801,-0.3759766 -1.256836,-0.3759766 -0.515625,0 -1.004394,0.1235352 -0.48877,0.1235351 -0.939942,0.3706054 V 8.3704195 q 0.542481,-0.2094727 1.052735,-0.3115234 0.510254,-0.1074219 0.993652,-0.1074219 1.305176,0 1.949707,0.6767578 0.644531,0.6767578 0.644531,2.051758 z"
       style="font-style:normal;font-variant:normal;font-weight:normal;font-stretch:normal;font-size:11px;font-family:'DejaVu Sans', Verdana, Geneva, sans-serif;-inkscape-font-specification:'DejaVu Sans, Verdana, Geneva, sans-serif, Normal';font-variant-ligatures:normal;font-variant-caps:normal;font-variant-numeric:normal;font-feature-settings:normal;text-align:start;writing-mode:lr-tb;text-anchor:start;fill:#ffffff"
       id="path859"
       inkscape:connector-curvature="0" />
    <path
       d="m 79.223216,8.0964937 -2.175293,2.9272463 2.288086,3.088379 h -1.165527 l -1.750977,-2.363282 -1.750976,2.363282 h -1.165528 l 2.336426,-3.147461 -2.137695,-2.8681643 h 1.165527 l 1.595215,2.1430663 1.595215,-2.1430663 z"
       style="font-style:normal;font-variant:normal;font-weight:normal;font-stretch:normal;font-size:11px;font-family:'DejaVu Sans', Verdana, Geneva, sans-serif;-inkscape-font-specification:'DejaVu Sans, Verdana, Geneva, sans-serif, Normal';font-variant-ligatures:normal;font-variant-caps:normal;font-variant-numeric:normal;font-feature-settings:normal;text-align:start;writing-mode:lr-tb;text-anchor:start;fill:#ffffff"
       id="path861"
       inkscape:connector-curvature="0" />
    <path
       d="m 83.235423,14.670712 q -0.418945,1.074219 -0.816406,1.401856 -0.397461,0.327637 -1.063477,0.327637 h -0.789551 v -0.827149 h 0.580079 q 0.408203,0 0.633789,-0.193359 0.225586,-0.19336 0.499511,-0.913086 l 0.177246,-0.451172 -2.433105,-5.9189453 h 1.047363 l 1.879883,4.7050783 1.879883,-4.7050783 h 1.047363 z"
       style="font-style:normal;font-variant:normal;font-weight:normal;font-stretch:normal;font-size:11px;font-family:'DejaVu Sans', Verdana, Geneva, sans-serif;-inkscape-font-specification:'DejaVu Sans, Verdana, Geneva, sans-serif, Normal';font-variant-ligatures:normal;font-variant-caps:normal;font-variant-numeric:normal;font-feature-settings:normal;text-align:start;writing-mode:lr-tb;text-anchor:start;fill:#ffffff"
       id="path863"
       inkscape:connector-curvature="0" />
  </g>
</svg>
